<?xml version="1.0" encoding="UTF-8"?>
<svg version="1.1" xmlns="http://www.w3.org/2000/svg" width="199" height="192">
<path d="M0 0 C65.67 0 131.34 0 199 0 C199 63.36 199 126.72 199 192 C133.33 192 67.66 192 0 192 C0 128.64 0 65.28 0 0 Z " fill="#D7C7B0" transform="translate(0,0)"/>
<path d="M0 0 C65.67 0 131.34 0 199 0 C199 63.36 199 126.72 199 192 C133.33 192 67.66 192 0 192 C0 128.64 0 65.28 0 0 Z M38.3125 48.875 C22.70969019 67.55442019 18.19721804 89.35687703 20.27734375 113.17578125 C22.78737508 129.31169692 30.30826397 143.84580839 41 156 C41.99966797 157.14275391 41.99966797 157.14275391 43.01953125 158.30859375 C56.90909683 173.17738659 76.1703437 181.35244004 96.37890625 182.25 C120.0329054 182.82204032 140.30563797 175.6883558 157.62890625 159.390625 C174.65912742 142.22012194 182.26137634 121.54964985 182.17919922 97.64819336 C182.09412329 91.85883664 181.6904864 86.56722686 180 81 C179.72542969 80.07453369 179.72542969 80.07453369 179.4453125 79.13037109 C172.72194409 56.95259334 158.29660617 39.32393873 138 28 C102.81383499 11.14088933 64.33904435 20.53498504 38.3125 48.875 Z " fill="#D8C9B2" transform="translate(0,0)"/>
<path d="M0 0 C0.71542969 0.27585937 1.43085938 0.55171875 2.16796875 0.8359375 C19.95429934 8.20231158 37.13946219 23.05198443 44.85742188 40.99316406 C46.80547056 45.92177223 48.46506538 50.92906971 50 56 C50.26941406 56.88429687 50.53882813 57.76859375 50.81640625 58.6796875 C55.72961609 78.53867551 50.68953888 100.95627403 40.73046875 118.33984375 C37.54799543 123.23208829 33.86005916 127.6325796 30 132 C29.47019531 132.62519531 28.94039062 133.25039062 28.39453125 133.89453125 C14.88811715 148.72033799 -5.32191574 156.1479302 -24.953125 157.21484375 C-46.51160691 157.88691882 -65.75396801 152.02629368 -82.1875 137.625 C-83.808634 136.10118526 -85.41358648 134.55992915 -87 133 C-88.04994141 131.96939453 -88.04994141 131.96939453 -89.12109375 130.91796875 C-104.78743549 114.45762138 -110.63510425 92.72373552 -110.1796875 70.51171875 C-109.44017383 48.3217439 -98.5624778 30.34634269 -83.0390625 15.0703125 C-60.83641487 -5.3198741 -28.00678307 -10.95694986 0 0 Z M-83.28515625 26.875 C-98.00629997 45.1171462 -102.50708408 63.89266227 -101 87 C-98.649189 107.05945835 -86.50847059 123.69436573 -71 136 C-54.52545449 148.13477429 -33.42277721 150.08171963 -13.62158203 147.71582031 C3.71319586 144.5470518 19.44389799 132.71912174 30 119 C42.22655266 100.99121485 45.87148581 81.92440806 42.3359375 60.36328125 C38.53994892 41.61879967 26.47792265 25.47153082 10.8125 14.8359375 C-20.13493666 -4.44213589 -57.99716673 0.1649475 -83.28515625 26.875 Z " fill="#702908" transform="translate(130,25)"/>
<path d="M0 0 C7.08416579 4.10377241 11.2508642 7.93973251 14.25 15.6875 C14.65698027 19.04508719 14.55633473 22.36991606 14.5 25.75 C15.49 26.08 16.48 26.41 17.5 26.75 C16.51 26.75 15.52 26.75 14.5 26.75 C14.5 27.41 14.5 28.07 14.5 28.75 C7.57 28.75 0.64 28.75 -6.5 28.75 C-6.83 27.43 -7.16 26.11 -7.5 24.75 C-10.14 24.75 -12.78 24.75 -15.5 24.75 C-15.83 26.07 -16.16 27.39 -16.5 28.75 C-19.60523354 28.66911825 -22.70850333 28.5562811 -25.8125 28.4375 C-27.13411133 28.40366211 -27.13411133 28.40366211 -28.48242188 28.36914062 C-29.32998047 28.33369141 -30.17753906 28.29824219 -31.05078125 28.26171875 C-32.22120972 28.22244263 -32.22120972 28.22244263 -33.4152832 28.18237305 C-35.99079631 27.64820819 -36.9245155 26.82774469 -38.5 24.75 C-38.71405449 17.06922118 -35.48185499 10.40292678 -30.5 4.75 C-21.9537921 -2.94911681 -10.56564184 -5.14817631 0 0 Z " fill="#D8C7B0" transform="translate(112.5,54.25)"/>
<path d="M0 0 C6.99025287 6.04623158 11.11079675 13.2897805 12.625 22.375 C12.75 25.875 12.75 25.875 12.625 28.375 C9.655 28.375 6.685 28.375 3.625 28.375 C3.52703125 27.66214844 3.4290625 26.94929688 3.328125 26.21484375 C2.22787212 19.16753434 1.27538176 13.32811783 -4.4609375 8.6875 C-12.69547172 2.99719064 -19.34011525 1.39213946 -29.375 2.375 C-36.08383614 4.35448116 -40.1690581 8.72786972 -44.5625 14 C-47.04195422 18.61691475 -47.67813235 23.22184711 -48.375 28.375 C-51.345 28.375 -54.315 28.375 -57.375 28.375 C-58.21366564 19.65287733 -55.10812596 11.47822072 -49.75 4.5625 C-36.04982523 -9.84386934 -16.00695253 -11.87302485 0 0 Z " fill="#712B0A" transform="translate(123.375,50.625)"/>
<path d="M0 0 C2.64 0 5.28 0 8 0 C8.495 2.475 8.495 2.475 9 5 C9.66531738 4.97381592 10.33063477 4.94763184 11.01611328 4.9206543 C14.05216535 4.8162454 17.08783911 4.75153652 20.125 4.6875 C21.17171875 4.64560547 22.2184375 4.60371094 23.296875 4.56054688 C32.03085742 4.42235095 32.03085742 4.42235095 35.6875 7.28125 C38.4747272 10.55812522 38.8335313 12.75504814 39 17 C36.03 17 33.06 17 30 17 C29.505 15.515 29.505 15.515 29 14 C24.56285102 13.80347668 20.12527385 13.61932078 15.6875 13.4375 C14.42486328 13.38142578 13.16222656 13.32535156 11.86132812 13.26757812 C10.65283203 13.21923828 9.44433594 13.17089844 8.19921875 13.12109375 C7.08377686 13.0739624 5.96833496 13.02683105 4.8190918 12.97827148 C1.91872017 12.85547856 1.91872017 12.85547856 -1 14 C-2.62719482 14.08143855 -4.25751719 14.1075302 -5.88671875 14.09765625 C-6.82451172 14.09443359 -7.76230469 14.09121094 -8.72851562 14.08789062 C-9.70498047 14.07951172 -10.68144531 14.07113281 -11.6875 14.0625 C-13.16959961 14.05573242 -13.16959961 14.05573242 -14.68164062 14.04882812 C-17.12115474 14.03704303 -19.56054689 14.02059011 -22 14 C-22 14.99 -22 15.98 -22 17 C-24.97 17 -27.94 17 -31 17 C-30.8335313 12.75504814 -30.4747272 10.55812522 -27.6875 7.28125 C-23.08901844 3.68598623 -17.68183673 4.46508966 -12.125 4.6875 C-11.05507812 4.71005859 -9.98515625 4.73261719 -8.8828125 4.75585938 C-6.25375593 4.81454367 -3.62761418 4.8965882 -1 5 C-0.67 3.35 -0.34 1.7 0 0 Z " fill="#6F2705" transform="translate(97,114)"/>
<path d="M0 0 C2.64 0 5.28 0 8 0 C8.66 1.32 9.32 2.64 10 4 C10.96039185 4.02187378 10.96039185 4.02187378 11.94018555 4.04418945 C14.85654831 4.11891382 17.77179687 4.21549293 20.6875 4.3125 C21.69490234 4.33505859 22.70230469 4.35761719 23.74023438 4.38085938 C33.17872649 4.7235109 33.17872649 4.7235109 37 8 C39.1519437 11.22791555 39.20086443 12.28400809 39 16 C36.03 16 33.06 16 30 16 C29.505 15.01 29.505 15.01 29 14 C28.35450195 13.97494385 27.70900391 13.9498877 27.04394531 13.92407227 C24.11244106 13.80785567 21.18123783 13.68524558 18.25 13.5625 C17.23421875 13.52318359 16.2184375 13.48386719 15.171875 13.44335938 C14.1921875 13.40146484 13.2125 13.35957031 12.203125 13.31640625 C10.85202637 13.26141968 10.85202637 13.26141968 9.47363281 13.20532227 C7 13 7 13 4.79980469 12.41772461 C2.91240214 11.77802782 2.91240214 11.77802782 1 13 C-0.7404417 13.08449628 -2.48409722 13.10723024 -4.2265625 13.09765625 C-5.2578125 13.09443359 -6.2890625 13.09121094 -7.3515625 13.08789062 C-8.97191406 13.07532227 -8.97191406 13.07532227 -10.625 13.0625 C-12.25695312 13.05573242 -12.25695312 13.05573242 -13.921875 13.04882812 C-16.61463789 13.03701776 -19.30729188 13.02054778 -22 13 C-22 13.99 -22 14.98 -22 16 C-24.97 16 -27.94 16 -31 16 C-30.71998862 11.98650355 -30.24236211 10.27964858 -27.5625 7.1875 C-24.11619312 4.24553071 -22.42594786 3.86196342 -17.9921875 3.68359375 C-17.00605469 3.64169922 -16.01992187 3.59980469 -15.00390625 3.55664062 C-13.97136719 3.51732422 -12.93882813 3.47800781 -11.875 3.4375 C-10.83472656 3.39431641 -9.79445313 3.35113281 -8.72265625 3.30664062 C-6.14857472 3.2003712 -3.57439492 3.09833417 -1 3 C-0.67 2.01 -0.34 1.02 0 0 Z " fill="#702A09" transform="translate(97,79)"/>
<path d="M0 0 C4.32504836 1.65863505 7.09418825 4.871041 10.25 8.125 C11.08144531 8.96998047 11.08144531 8.96998047 11.9296875 9.83203125 C13.29104485 11.21686028 14.64614859 12.60783204 16 14 C20.32504836 12.34136495 23.09418825 9.128959 26.25 5.875 C26.80429688 5.31167969 27.35859375 4.74835938 27.9296875 4.16796875 C29.29104485 2.78313972 30.64614859 1.39216796 32 0 C35.71860179 1.53873177 36.35633541 2.47511388 39 6 C32.07 12.93 25.14 19.86 18 27 C14.2345098 25.1172549 12.35356586 23.58807351 9.453125 20.6484375 C8.60878906 19.79765625 7.76445313 18.946875 6.89453125 18.0703125 C5.58548828 16.73613281 5.58548828 16.73613281 4.25 15.375 C3.36183594 14.4778125 2.47367187 13.580625 1.55859375 12.65625 C-0.63216969 10.44192996 -2.81812763 8.22307565 -5 6 C-3.35 4.02 -1.7 2.04 0 0 Z " fill="#6F2808" transform="translate(84,131)"/>
<path d="M0 0 C2.97 0 5.94 0 9 0 C9.33 0.99 9.66 1.98 10 3 C12.47266765 2.65555119 12.47266765 2.65555119 15 2 C15.33 1.34 15.66 0.68 16 0 C18.64 0 21.28 0 24 0 C23.76001446 6.11963135 23.76001446 6.11963135 21.66796875 8.54296875 C18.41099449 11.2452272 15.99165758 12.86389014 11.8125 13.4375 C7.36398667 12.92701486 5.57675176 11.79831429 2.37890625 8.80078125 C0.26111892 6.03505898 0.06812967 3.40648331 0 0 Z " fill="#6D2605" transform="translate(74,101)"/>
<path d="M0 0 C1.27875 -0.061875 2.5575 -0.12375 3.875 -0.1875 C4.95394531 -0.23970703 4.95394531 -0.23970703 6.0546875 -0.29296875 C6.69664063 -0.19628906 7.33859375 -0.09960938 8 0 C8.66 0.99 9.32 1.98 10 3 C11.32 3 12.64 3 14 3 C14.66 2.01 15.32 1.02 16 0 C17.9453125 -0.29296875 17.9453125 -0.29296875 20.125 -0.1875 C21.40375 -0.125625 22.6825 -0.06375 24 0 C23.76001446 6.11963135 23.76001446 6.11963135 21.66796875 8.54296875 C18.61148848 11.0788806 16.20123182 12.86349638 12.25 13.3125 C8.11403855 12.9148114 6.19086263 11.62359816 3 9 C0.42297891 5.56397188 0 4.39927132 0 0 Z " fill="#6F2B09" transform="translate(104,101)"/>
<path d="M0 0 C0.83595703 0.00451172 1.67191406 0.00902344 2.53320312 0.01367188 C4.58466649 0.02539452 6.63609273 0.04332797 8.6875 0.0625 C8.6875 0.7225 8.6875 1.3825 8.6875 2.0625 C7.6975 2.0625 6.7075 2.0625 5.6875 2.0625 C6.0175 3.7125 6.3475 5.3625 6.6875 7.0625 C1.7375 7.3925 -3.2125 7.7225 -8.3125 8.0625 C-8.6425 9.0525 -8.9725 10.0425 -9.3125 11.0625 C-12.2825 11.0625 -15.2525 11.0625 -18.3125 11.0625 C-17.7081044 4.65590659 -17.7081044 4.65590659 -16.0625 2.1875 C-11.39204094 -0.81493797 -5.33771287 -0.05476738 0 0 Z " fill="#6E2604" transform="translate(84.3125,119.9375)"/>
<path d="M0 0 C0.33 0 0.66 0 1 0 C1.33 5.28 1.66 10.56 2 16 C2.66 15.67 3.32 15.34 4 15 C4 15.66 4 16.32 4 17 C5.32 16.67 6.64 16.34 8 16 C8.76963893 24.77388378 5.99062515 31.89326967 3 40 C2.505 38.515 2.505 38.515 2 37 C1.34 37 0.68 37 0 37 C-0.33 36.34 -0.66 35.68 -1 35 C-1.99 35 -2.98 35 -4 35 C-3.51068939 31.73792924 -2.89995643 28.64672114 -2 25.46875 C-0.70393669 20.35053821 -0.5490384 15.25740988 -0.375 10 C-0.33632812 9.03449219 -0.29765625 8.06898437 -0.2578125 7.07421875 C-0.16443059 4.7163256 -0.07865671 2.35842244 0 0 Z " fill="#722A0A" transform="translate(173,93)"/>
<path d="M0 0 C3.89506511 -0.0749051 7.24474742 0.04214767 11 1 C12.36676632 1.13929356 13.7374567 1.24365301 15.109375 1.31640625 C16.24052734 1.37924805 16.24052734 1.37924805 17.39453125 1.44335938 C18.56048828 1.50233398 18.56048828 1.50233398 19.75 1.5625 C20.93916016 1.62727539 20.93916016 1.62727539 22.15234375 1.69335938 C24.10137815 1.79902991 26.05066748 1.89997966 28 2 C26.47793991 4.62901288 25.15634036 6.84365964 23 9 C16.9858609 9.89697429 10.52182313 10.59703609 5.23046875 7.24609375 C0 1.97792793 0 1.97792793 0 0 Z " fill="#6C2402" transform="translate(81,172)"/>
<path d="M0 0 C3.54122827 -0.14601614 7.08167644 -0.2343056 10.625 -0.3125 C11.62402344 -0.35439453 12.62304688 -0.39628906 13.65234375 -0.43945312 C21.99765784 -0.57762058 21.99765784 -0.57762058 25.7109375 2.39453125 C28 5 28 5 28 7 C20.23788606 10.88105697 8.50585002 9.08789053 0 9 C0 8.67 0 8.34 0 8 C1.22976562 7.97873047 1.22976562 7.97873047 2.484375 7.95703125 C4.10085937 7.88548828 4.10085937 7.88548828 5.75 7.8125 C7.35101563 7.76029297 7.35101563 7.76029297 8.984375 7.70703125 C12.71652393 7.15950789 12.71652393 7.15950789 16 2 C10.72 1.67 5.44 1.34 0 1 C0 0.67 0 0.34 0 0 Z " fill="#6E2A08" transform="translate(92,173)"/>
<path d="M0 0 C0.91120605 0.01047363 1.82241211 0.02094727 2.76123047 0.03173828 C3.74736328 0.03818359 4.73349609 0.04462891 5.74951172 0.05126953 C7.29832031 0.07640625 7.29832031 0.07640625 8.87841797 0.10205078 C9.91869141 0.11107422 10.95896484 0.12009766 12.03076172 0.12939453 C14.60520889 0.15301331 17.17920009 0.18594929 19.75341797 0.22705078 C19.42341797 1.21705078 19.09341797 2.20705078 18.75341797 3.22705078 C20.40341797 2.89705078 22.05341797 2.56705078 23.75341797 2.22705078 C23.87716797 2.86642578 24.00091797 3.50580078 24.12841797 4.16455078 C24.33466797 4.84517578 24.54091797 5.52580078 24.75341797 6.22705078 C25.41341797 6.55705078 26.07341797 6.88705078 26.75341797 7.22705078 C21.24316947 9.55197291 16.24228912 9.4607959 10.37841797 9.35205078 C8.98816406 9.33851563 8.98816406 9.33851563 7.56982422 9.32470703 C5.2974172 9.30128015 3.02555617 9.26847827 0.75341797 9.22705078 C0.75341797 8.89705078 0.75341797 8.56705078 0.75341797 8.22705078 C5.37341797 7.89705078 9.99341797 7.56705078 14.75341797 7.22705078 C14.75341797 5.90705078 14.75341797 4.58705078 14.75341797 3.22705078 C15.74341797 3.22705078 16.73341797 3.22705078 17.75341797 3.22705078 C17.75341797 2.56705078 17.75341797 1.90705078 17.75341797 1.22705078 C6.86341797 1.72205078 6.86341797 1.72205078 -4.24658203 2.22705078 C-2.24658203 0.22705078 -2.24658203 0.22705078 0 0 Z " fill="#884F2F" transform="translate(75.24658203125,118.77294921875)"/>
<path d="M0 0 C2.64 0 5.28 0 8 0 C7.70842276 3.79050406 7.45454034 6.35065665 5.25 9.5 C3 11 3 11 0.5 11.0625 C-2.71007263 9.69821913 -4.03922114 7.83223614 -6 5 C-5.195625 4.54625 -4.39125 4.0925 -3.5625 3.625 C-0.91143428 2.25274335 -0.91143428 2.25274335 0 0 Z " fill="#6E2605" transform="translate(90,101)"/>
<path d="M0 0 C-1.0725 0.0825 -2.145 0.165 -3.25 0.25 C-7.2738451 1.05476902 -8.48169253 1.87729874 -11 5 C-8.03 5.495 -8.03 5.495 -5 6 C-5 6.33 -5 6.66 -5 7 C-13.77578475 7.76681614 -13.77578475 7.76681614 -16.77734375 5.88671875 C-18.125 4.5 -18.125 4.5 -20 2 C-20.99 2.33 -21.98 2.66 -23 3 C-23.33 2.34 -23.66 1.68 -24 1 C-16.18282611 -1.79422386 -7.65533576 -4.38696182 0 0 Z " fill="#773816" transform="translate(110,45)"/>
<path d="M0 0 C3.35810395 1.38956025 5.18586552 2.82526467 7 6 C7.1875 8.75 7.1875 8.75 7 11 C4.03 11 1.06 11 -2 11 C-2.33 10.01 -2.66 9.02 -3 8 C-3.66 7.67 -4.32 7.34 -5 7 C-5 5 -5 5 -2.5 2.375 C-1.675 1.59125 -0.85 0.8075 0 0 Z " fill="#753213" transform="translate(129,120)"/>
<path d="M0 0 C2.97 0.495 2.97 0.495 6 1 C5.34 1.66 4.68 2.32 4 3 C4.5053125 3.49371094 5.010625 3.98742187 5.53125 4.49609375 C6.1809375 5.13675781 6.830625 5.77742187 7.5 6.4375 C8.1496875 7.07558594 8.799375 7.71367187 9.46875 8.37109375 C11 10 11 10 11 11 C4.42465139 10.37968409 -1.66692592 8.85102717 -8 7 C-8 6.67 -8 6.34 -8 6 C-7.05125 5.7525 -6.1025 5.505 -5.125 5.25 C-1.91306809 4.3142923 -1.91306809 4.3142923 -0.625 1.875 C-0.41875 1.25625 -0.2125 0.6375 0 0 Z " fill="#742D0D" transform="translate(78,170)"/>
<path d="M0 0 C3.16115776 1.36983503 3.9927092 1.9890638 6 5 C6.125 7.6875 6.125 7.6875 6 10 C2.96663814 10.22893297 0.02534949 10.36475845 -3 10 C-5.0625 8 -5.0625 8 -6 6 C-4.02 4.02 -2.04 2.04 0 0 Z " fill="#732C0B" transform="translate(130,85)"/>
<path d="M0 0 C5.37305699 -0.44041451 5.37305699 -0.44041451 8 0 C10 2.5 10 2.5 11 5 C10.01 5 9.02 5 8 5 C7.67 6.32 7.34 7.64 7 9 C4.625 8.75 4.625 8.75 2 8 C-0.09862498 5.10189884 0 3.71621139 0 0 Z " fill="#7A391D" transform="translate(104,101)"/>
<path d="M0 0 C4 2 4 2 6 5 C4.453125 5.3403125 4.453125 5.3403125 2.875 5.6875 C-1.36803203 6.88624279 -3.82526913 8.97644679 -7 12 C-7.33 12.66 -7.66 13.32 -8 14 C-9.32 13.34 -10.64 12.68 -12 12 C-8.04 8.04 -4.08 4.08 0 0 Z " fill="#723411" transform="translate(116,131)"/>
<path d="M0 0 C1 3 1 3 0 6 C-0.1464714 7.55266653 -0.24694074 9.10995662 -0.31640625 10.66796875 C-0.35830078 11.56064453 -0.40019531 12.45332031 -0.44335938 13.37304688 C-0.50233398 14.76620117 -0.50233398 14.76620117 -0.5625 16.1875 C-0.60568359 17.12787109 -0.64886719 18.06824219 -0.69335938 19.03710938 C-0.79938665 21.35792854 -0.90145029 23.67885325 -1 26 C-1.33 26 -1.66 26 -2 26 C-2 19.4 -2 12.8 -2 6 C-6.108276 9.38143422 -6.108276 9.38143422 -10 13 C-9.67 9.37 -9.34 5.74 -9 2 C-8.67 2 -8.34 2 -8 2 C-7.67 3.65 -7.34 5.3 -7 7 C-6.5875 6.401875 -6.175 5.80375 -5.75 5.1875 C-4.0092701 3.01158763 -2.28304179 1.57451158 0 0 Z " fill="#834325" transform="translate(30,82)"/>
<path d="M0 0 C0.33 0 0.66 0 1 0 C1 1.98 1 3.96 1 6 C-0.32 6.33 -1.64 6.66 -3 7 C-3 8.65 -3 10.3 -3 12 C-3.82902832 11.76228882 -3.82902832 11.76228882 -4.67480469 11.51977539 C-7.22064305 10.95067733 -9.59699445 10.7896572 -12.203125 10.68359375 C-13.1828125 10.64169922 -14.1625 10.59980469 -15.171875 10.55664062 C-16.18765625 10.51732422 -17.2034375 10.47800781 -18.25 10.4375 C-19.28125 10.39431641 -20.3125 10.35113281 -21.375 10.30664062 C-23.9165387 10.20074318 -26.45817196 10.09866557 -29 10 C-29 9.67 -29 9.34 -29 9 C-22.4 9 -15.8 9 -9 9 C-9 7.68 -9 6.36 -9 5 C-6.03 5 -3.06 5 0 5 C0 3.35 0 1.7 0 0 Z " fill="#C9A88E" transform="translate(136,74)"/>
<path d="M0 0 C0.33 0 0.66 0 1 0 C1.66 3.96 2.32 7.92 3 12 C2.34 12 1.68 12 1 12 C0.67 11.34 0.34 10.68 0 10 C-2.32156597 9.59270772 -4.6568787 9.25561323 -7 9 C-7.33 6.36 -7.66 3.72 -8 1 C-4.30581799 2.231394 -2.64890254 4.20791354 0 7 C0 4.69 0 2.38 0 0 Z " fill="#793716" transform="translate(29,112)"/>
<path d="M0 0 C2.97 0 5.94 0 9 0 C9.33 0.99 9.66 1.98 10 3 C10.99 3.66 11.98 4.32 13 5 C12.01 5.495 12.01 5.495 11 6 C12.98 7.65 14.96 9.3 17 11 C15 13 15 13 11.375 13.125 C10.26125 13.08375 9.1475 13.0425 8 13 C8 12.67 8 12.34 8 12 C9.65 12 11.3 12 13 12 C12.566875 11.45730469 12.13375 10.91460937 11.6875 10.35546875 C11.130625 9.64003906 10.57375 8.92460938 10 8.1875 C9.443125 7.47980469 8.88625 6.77210937 8.3125 6.04296875 C7 4 7 4 7 1 C5.02 1 3.04 1 1 1 C0.67 2.32 0.34 3.64 0 5 C0 3.35 0 1.7 0 0 Z " fill="#7A3C1D" transform="translate(74,101)"/>
<path d="M0 0 C0 3 0 3 -1 5 C-0.34 5.33 0.32 5.66 1 6 C1 6.66 1 7.32 1 8 C2.32 8 3.64 8 5 8 C5 8.66 5 9.32 5 10 C2.03 10 -0.94 10 -4 10 C-3.38461538 3.47692308 -3.38461538 3.47692308 -1.4375 1.0625 C-0.7259375 0.5365625 -0.7259375 0.5365625 0 0 Z " fill="#7D4021" transform="translate(70,121)"/>
<path d="M0 0 C6.93 0 13.86 0 21 0 C19.02 2.31 17.04 4.62 15 7 C14.01 7 13.02 7 12 7 C13.32 5.35 14.64 3.7 16 2 C10.72 1.67 5.44 1.34 0 1 C0 0.67 0 0.34 0 0 Z " fill="#8E4E2D" transform="translate(92,173)"/>
<path d="M0 0 C4.875 1.75 4.875 1.75 6 4 C4.02253397 4.73080266 2.01927511 5.39421747 0 6 C-0.66 5.67 -1.32 5.34 -2 5 C-1.67 6.32 -1.34 7.64 -1 9 C-2.32 8.01 -3.64 7.02 -5 6 C-4.34 5.01 -3.68 4.02 -3 3 C-2.01 3 -1.02 3 0 3 C0 2.01 0 1.02 0 0 Z " fill="#7D4023" transform="translate(144,33)"/>
<path d="M0 0 C1.98 0 3.96 0 6 0 C6.33 0.99 6.66 1.98 7 3 C5.68 3 4.36 3 3 3 C3.33 3.99 3.66 4.98 4 6 C3.34 6.66 2.68 7.32 2 8 C0 6 0 6 -0.125 2.875 C-0.08375 1.92625 -0.0425 0.9775 0 0 Z " fill="#722D0E" transform="translate(75,102)"/>
<path d="M0 0 C2.64 0 5.28 0 8 0 C8 0.66 8 1.32 8 2 C7.0409375 2.433125 7.0409375 2.433125 6.0625 2.875 C3.84793921 3.82823451 3.84793921 3.82823451 3 6 C2.34 6 1.68 6 1 6 C0.67 4.02 0.34 2.04 0 0 Z " fill="#6D2709" transform="translate(104,101)"/>
<path d="M0 0 C0.33 0 0.66 0 1 0 C1.33 5.28 1.66 10.56 2 16 C2.66 15.67 3.32 15.34 4 15 C3.01 17.475 3.01 17.475 2 20 C1.34 20 0.68 20 0 20 C0 13.4 0 6.8 0 0 Z " fill="#884726" transform="translate(173,93)"/>
<path d="M0 0 C2.97 0.495 2.97 0.495 6 1 C3.72058766 4.41911851 3.59525083 4.10118729 0 5 C-0.99 6.485 -0.99 6.485 -2 8 C-4.97 7.505 -4.97 7.505 -8 7 C-8 6.67 -8 6.34 -8 6 C-7.05125 5.7525 -6.1025 5.505 -5.125 5.25 C-1.91306809 4.3142923 -1.91306809 4.3142923 -0.625 1.875 C-0.41875 1.25625 -0.2125 0.6375 0 0 Z " fill="#7C3B1E" transform="translate(78,170)"/>
<path d="M0 0 C1.32 0.66 2.64 1.32 4 2 C3.67 2.66 3.34 3.32 3 4 C2.01 4 1.02 4 0 4 C0 4.66 0 5.32 0 6 C-1.32 6.33 -2.64 6.66 -4 7 C-4 4 -4 4 -2 1.8125 C-1.34 1.214375 -0.68 0.61625 0 0 Z " fill="#733617" transform="translate(84,131)"/>
<path d="M0 0 C2.64 0 5.28 0 8 0 C8 0.66 8 1.32 8 2 C7.01 2 6.02 2 5 2 C4.67 2.99 4.34 3.98 4 5 C3.01 4.01 2.02 3.02 1 2 C1.33 2.99 1.66 3.98 2 5 C1.01 5.33 0.02 5.66 -1 6 C-0.67 4.02 -0.34 2.04 0 0 Z " fill="#854E32" transform="translate(97,114)"/>
<path d="M0 0 C2.97 1.98 2.97 1.98 6 4 C5.01 4.33 4.02 4.66 3 5 C2.67 5.99 2.34 6.98 2 8 C1.01 8.495 1.01 8.495 0 9 C0 6.03 0 3.06 0 0 Z " fill="#D0B6A1" transform="translate(105,108)"/>
<path d="M0 0 C0.66 0 1.32 0 2 0 C2 1.98 2 3.96 2 6 C0.02 6.99 0.02 6.99 -2 8 C-1.125 1.125 -1.125 1.125 0 0 Z " fill="#6E2303" transform="translate(160,48)"/>
<path d="M0 0 C1.32 1.32 2.64 2.64 4 4 C2.35 5.32 0.7 6.64 -1 8 C-1.125 2.25 -1.125 2.25 0 0 Z " fill="#6D2403" transform="translate(23,82)"/>
<path d="M0 0 C1.32 1.32 2.64 2.64 4 4 C1.6875 6.5 1.6875 6.5 -1 9 C-1.99 9 -2.98 9 -4 9 C-3.525625 8.62875 -3.05125 8.2575 -2.5625 7.875 C-0.47794198 5.37353038 -0.35378509 3.18406582 0 0 Z " fill="#743816" transform="translate(162,48)"/>
<path d="M0 0 C0.0825 0.5775 0.165 1.155 0.25 1.75 C1.20531013 4.6159304 2.78469173 5.9990764 5 8 C4.34 8.66 3.68 9.32 3 10 C2.38125 9.21625 1.7625 8.4325 1.125 7.625 C-0.89858661 5.03162353 -0.89858661 5.03162353 -3 3 C-2.01 2.01 -1.02 1.02 0 0 Z " fill="#793719" transform="translate(159,144)"/>
<path d="M0 0 C2.64 0 5.28 0 8 0 C7.01 0.495 7.01 0.495 6 1 C6 1.99 6 2.98 6 4 C4.35 3.67 2.7 3.34 1 3 C0.67 2.01 0.34 1.02 0 0 Z " fill="#732D0B" transform="translate(91,123)"/>
<path d="M0 0 C0.99 0.33 1.98 0.66 3 1 C3 1.99 3 2.98 3 4 C0 6 0 6 -4 6 C-3.67 5.01 -3.34 4.02 -3 3 C-2.01 2.67 -1.02 2.34 0 2 C0 1.34 0 0.68 0 0 Z " fill="#713210" transform="translate(98,116)"/>
<path d="M0 0 C1.32 0.66 2.64 1.32 4 2 C3.67 2.66 3.34 3.32 3 4 C1.68 4 0.36 4 -1 4 C-1.66 5.32 -2.32 6.64 -3 8 C-3.99 7.34 -4.98 6.68 -6 6 C-4.02 4.02 -2.04 2.04 0 0 Z " fill="#7C3C1E" transform="translate(130,85)"/>
<path d="M0 0 C0.33 0 0.66 0 1 0 C1.17942163 3.94727588 1.09350689 6.5980513 -1 10 C-1.66 10 -2.32 10 -3 10 C-2.49287967 6.28111761 -1.88391785 3.26545761 0 0 Z " fill="#D1B899" transform="translate(36,68)"/>
<path d="M0 0 C0 3 0 3 -1.875 5.1875 C-4 7 -4 7 -6 7 C-5.67 5.35 -5.34 3.7 -5 2 C-4.01 2 -3.02 2 -2 2 C-1.34 1.34 -0.68 0.68 0 0 Z " fill="#76300E" transform="translate(100,81)"/>
<path d="M0 0 C0.66 0.33 1.32 0.66 2 1 C0.8125 3.5 0.8125 3.5 -1 6 C-3.6875 6.3125 -3.6875 6.3125 -6 6 C-4 4 -2 2 0 0 Z " fill="#753216" transform="translate(53,35)"/>
<path d="M0 0 C0 0.99 0 1.98 0 3 C-2.5 5.1875 -2.5 5.1875 -5 7 C-5.66 6.67 -6.32 6.34 -7 6 C-4.69 4.02 -2.38 2.04 0 0 Z " fill="#D1B69D" transform="translate(57,43)"/>
</svg>
